<svg width="28" height="28" viewBox="0 0 28 28" fill="none" xmlns="http://www.w3.org/2000/svg">
<path d="M11.4492 17.0693C13.55 15.9799 15.6325 14.9006 17.7342 13.8107C15.6262 12.7107 13.5443 11.6251 11.4492 10.5317C11.4492 12.7185 11.4492 14.8828 11.4492 17.0693Z" fill="white"/>
<path d="M14 0C6.26828 0 0 6.26799 0 14C0 21.732 6.26828 28 14 28C21.7317 28 28 21.732 28 14C28 6.26799 21.7317 0 14 0ZM23.5389 18.6731C23.2966 19.7243 22.4367 20.4997 21.4017 20.6152C18.9506 20.8893 16.47 20.8907 13.9994 20.8893C11.5288 20.8907 9.04765 20.8893 6.59597 20.6152C5.56104 20.4997 4.70171 19.7243 4.45995 18.6731C4.11536 17.1755 4.11536 15.5414 4.11536 14C4.11536 12.4586 4.11937 10.8239 4.46396 9.32694C4.70572 8.27568 5.56505 7.49999 6.59998 7.38427C9.05166 7.11042 11.5328 7.10899 14.0034 7.11042C16.4735 7.10899 18.9546 7.11042 21.4055 7.38427C22.441 7.49999 23.3009 8.2754 23.5426 9.32694C23.8872 10.8242 23.8844 12.4586 23.8844 14C23.8844 15.5414 23.8835 17.1758 23.5389 18.6731Z" fill="white"/>
</svg>
