<svg width="338" height="80" viewBox="0 0 338 80" fill="none" xmlns="http://www.w3.org/2000/svg">
<g filter="url(#filter0_d)">
<path d="M195 53.2588C205.493 53.2588 214 44.7522 214 34.2588C214 23.7654 205.493 15.2588 195 15.2588C184.507 15.2588 176 23.7654 176 34.2588C176 44.7522 184.507 53.2588 195 53.2588Z" fill="#665CAC"/>
<path d="M198.006 38.5867C198.191 38.5297 197.793 38.522 198.006 38.5867V38.5867Z" fill="white"/>
<path d="M195.008 27.5371C195.01 27.5371 195.012 27.5373 195.014 27.5373C195.156 27.5423 197.454 27.6051 195.008 27.5371Z" fill="white"/>
<path d="M198.877 32.5556C198.867 32.3805 198.872 32.5873 198.877 32.5556V32.5556Z" fill="white"/>
<path d="M197.291 32.4919C197.294 32.4916 197.297 32.4897 197.301 32.4893C197.292 32.4893 197.278 32.4895 197.264 32.4901C197.273 32.4904 197.281 32.492 197.291 32.4919Z" fill="white"/>
<path d="M197.291 32.493C197.282 32.4931 197.273 32.4915 197.264 32.4912C197.218 32.4926 197.17 32.4954 197.291 32.493Z" fill="white"/>
<path d="M197.301 32.4902C197.297 32.4907 197.294 32.4926 197.291 32.4929C197.316 32.4909 197.314 32.4902 197.301 32.4902Z" fill="white"/>
<path d="M204.367 25.7077C203.768 25.1593 201.354 23.4058 195.979 23.3805C195.979 23.3805 189.636 22.9981 186.544 25.834C184.823 27.555 184.216 30.0734 184.155 33.198C184.09 36.3225 184.007 42.1711 189.65 43.7586H189.654L189.65 46.1796C189.65 46.1796 189.614 47.161 190.26 47.3594C191.039 47.6012 191.497 46.8579 192.244 46.0533C192.652 45.6131 193.218 44.9637 193.644 44.4694C197.501 44.7941 200.471 44.0509 200.806 43.9426C201.585 43.6901 205.994 43.1236 206.709 37.275C207.448 31.246 206.352 27.4287 204.367 25.7077ZM205.02 36.8421C204.414 41.7273 200.839 42.0376 200.182 42.2469C199.9 42.3371 197.295 42.9865 194.019 42.77C194.019 42.77 191.577 45.7142 190.815 46.4827C190.696 46.6017 190.556 46.6522 190.462 46.627C190.332 46.5945 190.296 46.4394 190.296 46.2121C190.3 45.8874 190.318 42.1891 190.318 42.1891C190.314 42.1891 190.314 42.1891 190.318 42.1891C185.548 40.865 185.826 35.8823 185.88 33.2737C185.934 30.6651 186.425 28.5292 187.879 27.0932C190.494 24.7263 195.881 25.0799 195.881 25.0799C200.431 25.1016 202.61 26.469 203.115 26.9272C204.793 28.3668 205.648 31.8053 205.02 36.8421Z" fill="white"/>
<path fill-rule="evenodd" clip-rule="evenodd" d="M195.938 31.1602C195.951 30.919 196.157 30.7339 196.398 30.7467C197.048 30.7813 197.607 30.9787 198.01 31.3943C198.41 31.8079 198.598 32.3784 198.63 33.0421C198.642 33.2834 198.456 33.4884 198.214 33.5001C197.973 33.5117 197.768 33.3256 197.756 33.0843C197.731 32.5538 197.587 32.2151 197.381 32.0027C197.177 31.7923 196.856 31.647 196.352 31.6202C196.11 31.6074 195.925 31.4014 195.938 31.1602Z" fill="white"/>
<path fill-rule="evenodd" clip-rule="evenodd" d="M195.474 29.5197C195.491 29.2787 195.7 29.0973 195.941 29.1144C197.248 29.2072 198.31 29.6577 199.086 30.5033C199.856 31.342 200.217 32.3824 200.19 33.5943C200.184 33.8358 199.984 34.0271 199.743 34.0216C199.501 34.0161 199.31 33.8159 199.315 33.5745C199.338 32.5638 199.043 31.7498 198.442 31.0947C197.847 30.4466 197.011 30.0673 195.879 29.9869C195.638 29.9698 195.457 29.7606 195.474 29.5197Z" fill="white"/>
<path fill-rule="evenodd" clip-rule="evenodd" d="M194.939 27.9717C194.941 27.7301 195.138 27.5356 195.38 27.5371C197.177 27.5486 198.706 28.1507 199.929 29.3426L199.929 29.3431C201.166 30.5523 201.774 32.1885 201.789 34.2094C201.791 34.451 201.596 34.6482 201.355 34.65C201.113 34.6518 200.916 34.4575 200.914 34.216C200.901 32.3765 200.354 30.982 199.318 29.9687C198.268 28.9455 196.961 28.4219 195.374 28.4118C195.132 28.4102 194.938 28.2132 194.939 27.9717Z" fill="white"/>
<path d="M196.434 37.1361C196.434 37.1361 196.863 37.1722 197.09 36.8872L197.538 36.3243C197.754 36.0429 198.277 35.8661 198.79 36.1512C199.075 36.3135 199.587 36.6274 199.905 36.8619C200.244 37.1109 200.94 37.6918 200.94 37.6918C201.272 37.9696 201.348 38.3809 201.124 38.8139C201.124 38.8175 201.12 38.8211 201.12 38.8211C200.89 39.2288 200.579 39.6149 200.186 39.9721C200.182 39.9757 200.182 39.9757 200.179 39.9793C199.858 40.2463 199.54 40.4014 199.23 40.4375C199.194 40.4447 199.147 40.4483 199.093 40.4447C198.956 40.4447 198.822 40.4267 198.689 40.3834L198.678 40.3689C198.198 40.2354 197.401 39.8963 196.069 39.1639C195.203 38.6876 194.485 38.2005 193.879 37.717C193.558 37.4645 193.23 37.1758 192.894 36.8439C192.883 36.8331 192.873 36.8223 192.862 36.8114C192.851 36.8006 192.84 36.7898 192.829 36.779C192.818 36.7681 192.808 36.7573 192.797 36.7465C192.786 36.7357 192.775 36.7248 192.764 36.714C192.432 36.3785 192.144 36.0501 191.891 35.729C191.408 35.1229 190.921 34.4013 190.444 33.539C189.712 32.2076 189.373 31.4102 189.239 30.9304L189.225 30.9195C189.182 30.786 189.16 30.6525 189.164 30.5154C189.16 30.4613 189.164 30.4144 189.171 30.3783C189.207 30.068 189.362 29.7505 189.629 29.4294C189.633 29.4258 189.633 29.4258 189.636 29.4222C189.993 29.0289 190.376 28.7186 190.787 28.4877C190.791 28.4877 190.794 28.4841 190.794 28.4841C191.227 28.2604 191.639 28.3362 191.916 28.6681C191.92 28.6717 192.497 29.3645 192.746 29.7036C192.981 30.0247 193.298 30.5335 193.457 30.8185C193.742 31.3308 193.565 31.854 193.284 32.0705L192.721 32.5179C192.436 32.7488 192.472 33.1745 192.472 33.1745C192.472 33.1745 193.309 36.3388 196.434 37.1361Z" fill="white"/>
</g>
<g filter="url(#filter1_d)">
<path d="M143 52C153.493 52 162 43.4934 162 33C162 22.5066 153.493 14 143 14C132.507 14 124 22.5066 124 33C124 43.4934 132.507 52 143 52Z" fill="url(#paint0_linear)"/>
<path d="M152.242 24.9283L148.846 42.0347C148.846 42.0347 148.369 43.2236 147.067 42.6541L139.236 36.6529L136.388 35.279L131.597 33.6631C131.597 33.6631 130.864 33.3997 130.793 32.8302C130.722 32.2607 131.626 31.9546 131.626 31.9546L150.683 24.4798C150.676 24.4798 152.242 23.7893 152.242 24.9283Z" fill="white"/>
<path d="M138.637 41.8491C138.637 41.8491 138.409 41.8277 138.124 40.9236C137.84 40.0195 136.395 35.2784 136.395 35.2784L147.906 27.9675C147.906 27.9675 148.568 27.5617 148.546 27.9675C148.546 27.9675 148.667 28.0386 148.311 28.3732C147.955 28.7078 139.271 36.51 139.271 36.51" fill="#CBDDEC"/>
<path d="M142.247 38.9527L139.15 41.7789C139.15 41.7789 138.908 41.964 138.645 41.85L139.235 36.6035" fill="#ADC6DD"/>
</g>
<g filter="url(#filter2_d)">
<circle cx="247" cy="33.0029" r="19" fill="url(#paint1_linear)"/>
<path d="M253.884 35.0928C253.363 35.0928 252.941 34.6713 252.941 34.1495C252.941 33.6276 253.363 33.2061 253.884 33.2061C254.406 33.2061 254.828 33.6276 254.828 34.1495C254.828 34.6713 254.406 35.0928 253.884 35.0928ZM249.208 35.0928C248.686 35.0928 248.265 34.6713 248.265 34.1495C248.265 33.6276 248.686 33.2061 249.208 33.2061C249.73 33.2061 250.151 33.6276 250.151 34.1495C250.151 34.6713 249.73 35.0928 249.208 35.0928ZM256.153 40.4519C257.638 39.368 258.581 37.7824 258.581 36.0161C258.581 32.7846 255.43 30.1553 251.556 30.1553C247.682 30.1553 244.531 32.7846 244.531 36.0161C244.531 39.2476 247.682 41.8769 251.556 41.8769C252.359 41.8769 253.142 41.7565 253.844 41.5558C253.905 41.5357 253.985 41.5156 254.045 41.5156C254.186 41.5156 254.306 41.5558 254.426 41.616L255.972 42.4991C256.012 42.5192 256.052 42.5393 256.112 42.5393C256.233 42.5393 256.353 42.4389 256.353 42.2984C256.353 42.2382 256.333 42.178 256.313 42.1178C256.313 42.0776 256.112 41.3751 255.992 40.9336C255.972 40.8934 255.972 40.8332 255.972 40.7931C255.952 40.6727 256.032 40.5522 256.153 40.4519Z" fill="white"/>
<path d="M246.478 29.6144C245.856 29.6144 245.354 29.1126 245.354 28.4904C245.354 27.8682 245.856 27.3664 246.478 27.3664C247.1 27.3664 247.602 27.8682 247.602 28.4904C247.602 29.1126 247.1 29.6144 246.478 29.6144ZM240.858 29.6144C240.236 29.6144 239.734 29.1126 239.734 28.4904C239.734 27.8682 240.236 27.3664 240.858 27.3664C241.48 27.3664 241.982 27.8682 241.982 28.4904C241.982 29.1126 241.48 29.6144 240.858 29.6144ZM243.668 23.6934C239.012 23.6934 235.238 26.8446 235.238 30.7183C235.238 32.8459 236.382 34.7527 238.149 36.0372C238.289 36.1376 238.389 36.2982 238.389 36.4989C238.389 36.5591 238.369 36.6193 238.369 36.6795C238.229 37.2014 238.008 38.0644 237.988 38.1046C237.968 38.1648 237.948 38.2451 237.948 38.3053C237.948 38.4659 238.068 38.5863 238.229 38.5863C238.289 38.5863 238.349 38.5662 238.389 38.5261L240.236 37.4623C240.377 37.382 240.517 37.3419 240.678 37.3419C240.758 37.3419 240.838 37.3619 240.918 37.382C241.782 37.6229 242.705 37.7634 243.668 37.7634C243.829 37.7634 243.969 37.7634 244.13 37.7433C243.949 37.2014 243.849 36.6193 243.849 36.0172C243.849 32.4846 247.301 29.5943 251.536 29.5943C251.697 29.5943 251.837 29.5943 251.998 29.6144C251.376 26.2625 247.883 23.6934 243.668 23.6934Z" fill="white"/>
</g>
<g filter="url(#filter3_d)">
<circle cx="39" cy="33.0029" r="19" fill="white"/>
<path fill-rule="evenodd" clip-rule="evenodd" d="M39.0008 21.3994C32.176 21.3994 26.8867 26.3987 26.8867 33.1505C26.8867 36.6824 28.3346 39.7341 30.6916 41.8425C30.889 42.0204 31.0084 42.2666 31.0182 42.5323L31.084 44.687C31.1059 45.3744 31.8152 45.8205 32.4441 45.545L34.8474 44.4847C35.0522 44.3945 35.2788 44.3775 35.4933 44.436C36.5975 44.7407 37.7748 44.9015 39.0008 44.9015C45.8257 44.9015 51.1149 39.9023 51.1149 33.1505C51.1149 26.3987 45.8257 21.3994 39.0008 21.3994Z" fill="url(#paint2_linear)"/>
<path fill-rule="evenodd" clip-rule="evenodd" d="M31.7252 36.586L35.2839 30.9408C35.8494 30.0438 37.0632 29.8196 37.9115 30.4558L40.7413 32.5788C41.0021 32.7738 41.358 32.7714 41.6164 32.5764L45.4383 29.6758C45.9477 29.2882 46.6156 29.9 46.2719 30.4412L42.7157 36.0839C42.1502 36.9809 40.9363 37.2051 40.0881 36.569L37.2582 34.4459C36.9974 34.2509 36.6416 34.2534 36.3832 34.4484L32.5588 37.3514C32.0494 37.739 31.3816 37.1271 31.7252 36.586Z" fill="white"/>
</g>
<g filter="url(#filter4_d)">
<circle cx="299" cy="33.0029" r="19" fill="white"/>
<path d="M291.728 30.0362C291.955 30.1952 292.642 30.6676 293.787 31.4531C294.932 32.2386 295.809 32.8434 296.418 33.2676C296.485 33.3141 296.628 33.4152 296.845 33.5709C297.063 33.7268 297.244 33.8528 297.388 33.9489C297.532 34.045 297.706 34.1527 297.91 34.272C298.114 34.3912 298.307 34.4808 298.488 34.5402C298.668 34.6 298.836 34.6296 298.99 34.6296H299H299.01C299.164 34.6296 299.332 34.6 299.512 34.5402C299.693 34.4808 299.886 34.3911 300.09 34.272C300.294 34.1526 300.468 34.0449 300.612 33.9489C300.756 33.8528 300.937 33.7268 301.155 33.5709C301.372 33.415 301.515 33.3141 301.582 33.2676C302.197 32.8434 303.765 31.7662 306.282 30.0359C306.771 29.698 307.18 29.2903 307.508 28.8129C307.836 28.3358 308 27.8353 308 27.3117C308 26.8741 307.841 26.4996 307.523 26.188C307.205 25.8764 306.828 25.7207 306.393 25.7207H291.607C291.091 25.7207 290.695 25.893 290.417 26.2377C290.139 26.5824 290 27.0133 290 27.5303C290 27.9479 290.184 28.4005 290.552 28.8877C290.921 29.3749 291.313 29.7578 291.728 30.0362Z" fill="url(#paint3_linear)"/>
<path d="M306.995 31.0994C304.799 32.5709 303.132 33.7145 301.993 34.53C301.612 34.8083 301.302 35.0255 301.064 35.1812C300.826 35.337 300.51 35.4961 300.115 35.6584C299.72 35.821 299.352 35.902 299.01 35.902H299H298.99C298.648 35.902 298.28 35.821 297.885 35.6584C297.49 35.4961 297.174 35.337 296.936 35.1812C296.698 35.0255 296.388 34.8083 296.007 34.53C295.103 33.8738 293.439 32.7301 291.015 31.0994C290.633 30.8477 290.295 30.5591 290 30.2344V38.1293C290 38.567 290.157 38.9414 290.472 39.253C290.787 39.5647 291.165 39.7204 291.607 39.7204H306.393C306.835 39.7204 307.213 39.5647 307.528 39.253C307.843 38.9413 308 38.5671 308 38.1293V30.2344C307.712 30.5524 307.377 30.841 306.995 31.0994Z" fill="url(#paint4_linear)"/>
</g>
<g filter="url(#filter5_d)">
<circle cx="91" cy="33.0029" r="19" fill="url(#paint5_linear)"/>
<path d="M91.0389 40.0384C87.2434 40.0384 85.5147 38.1131 85.5147 36.6785C85.5147 35.9612 86.0784 35.4327 86.83 35.4327C88.4459 35.4327 88.0326 37.8865 91.0765 37.8865C92.6173 37.8865 93.5192 36.9427 93.5192 36.0745C93.5192 35.5459 93.2185 34.9419 92.2039 34.7154L88.8217 33.8471C86.116 33.1676 85.6275 31.6198 85.6275 30.223C85.6275 27.3161 88.2956 26.259 90.8134 26.259C93.1434 26.259 95.9242 27.5426 95.9242 29.3169C95.9242 30.0719 95.2854 30.4872 94.5714 30.4872C93.1809 30.4872 93.4064 28.5241 90.6255 28.5241C89.2351 28.5241 88.5211 29.1659 88.5211 30.0719C88.5211 30.978 89.6109 31.28 90.5504 31.5065L93.0306 32.0728C95.7739 32.6768 96.4879 34.3001 96.4879 35.848C96.4879 38.2263 94.6465 40.0384 91.0389 40.0384ZM101.524 35.0174C101.636 34.4134 101.674 33.7716 101.674 33.1298C101.674 27.1651 96.9013 22.3329 91.0013 22.3329C90.3625 22.3329 89.7612 22.3706 89.1599 22.4839C88.2205 21.9553 87.1682 21.6533 86.0033 21.6533C82.5084 21.6533 79.6523 24.5224 79.6523 28.0711C79.6523 29.2414 79.953 30.2985 80.4791 31.2422C80.3664 31.8463 80.3288 32.4881 80.3288 33.1298C80.3288 39.0946 85.1014 43.9268 91.0013 43.9268C91.6402 43.9268 92.2415 43.8891 92.8427 43.7758C93.7822 44.3043 94.8344 44.6063 95.9994 44.6063C99.4943 44.6063 102.35 41.7372 102.35 38.1886C102.35 37.056 102.05 35.9612 101.524 35.0174Z" fill="white"/>
</g>
<defs>
<filter id="filter0_d" x="156" y="1.25879" width="78" height="78" filterUnits="userSpaceOnUse" color-interpolation-filters="sRGB">
<feFlood flood-opacity="0" result="BackgroundImageFix"/>
<feColorMatrix in="SourceAlpha" type="matrix" values="0 0 0 0 0 0 0 0 0 0 0 0 0 0 0 0 0 0 127 0"/>
<feOffset dy="6"/>
<feGaussianBlur stdDeviation="10"/>
<feColorMatrix type="matrix" values="0 0 0 0 0 0 0 0 0 0 0 0 0 0 0 0 0 0 0.3 0"/>
<feBlend mode="normal" in2="BackgroundImageFix" result="effect1_dropShadow"/>
<feBlend mode="normal" in="SourceGraphic" in2="effect1_dropShadow" result="shape"/>
</filter>
<filter id="filter1_d" x="104" y="0" width="78" height="78" filterUnits="userSpaceOnUse" color-interpolation-filters="sRGB">
<feFlood flood-opacity="0" result="BackgroundImageFix"/>
<feColorMatrix in="SourceAlpha" type="matrix" values="0 0 0 0 0 0 0 0 0 0 0 0 0 0 0 0 0 0 127 0"/>
<feOffset dy="6"/>
<feGaussianBlur stdDeviation="10"/>
<feColorMatrix type="matrix" values="0 0 0 0 0 0 0 0 0 0 0 0 0 0 0 0 0 0 0.25 0"/>
<feBlend mode="normal" in2="BackgroundImageFix" result="effect1_dropShadow"/>
<feBlend mode="normal" in="SourceGraphic" in2="effect1_dropShadow" result="shape"/>
</filter>
<filter id="filter2_d" x="208" y="0.00292969" width="78" height="78" filterUnits="userSpaceOnUse" color-interpolation-filters="sRGB">
<feFlood flood-opacity="0" result="BackgroundImageFix"/>
<feColorMatrix in="SourceAlpha" type="matrix" values="0 0 0 0 0 0 0 0 0 0 0 0 0 0 0 0 0 0 127 0"/>
<feOffset dy="6"/>
<feGaussianBlur stdDeviation="10"/>
<feColorMatrix type="matrix" values="0 0 0 0 0 0 0 0 0 0 0 0 0 0 0 0 0 0 0.3 0"/>
<feBlend mode="normal" in2="BackgroundImageFix" result="effect1_dropShadow"/>
<feBlend mode="normal" in="SourceGraphic" in2="effect1_dropShadow" result="shape"/>
</filter>
<filter id="filter3_d" x="0" y="0.00292969" width="78" height="78" filterUnits="userSpaceOnUse" color-interpolation-filters="sRGB">
<feFlood flood-opacity="0" result="BackgroundImageFix"/>
<feColorMatrix in="SourceAlpha" type="matrix" values="0 0 0 0 0 0 0 0 0 0 0 0 0 0 0 0 0 0 127 0"/>
<feOffset dy="6"/>
<feGaussianBlur stdDeviation="10"/>
<feColorMatrix type="matrix" values="0 0 0 0 0 0 0 0 0 0 0 0 0 0 0 0 0 0 0.3 0"/>
<feBlend mode="normal" in2="BackgroundImageFix" result="effect1_dropShadow"/>
<feBlend mode="normal" in="SourceGraphic" in2="effect1_dropShadow" result="shape"/>
</filter>
<filter id="filter4_d" x="260" y="0.00292969" width="78" height="78" filterUnits="userSpaceOnUse" color-interpolation-filters="sRGB">
<feFlood flood-opacity="0" result="BackgroundImageFix"/>
<feColorMatrix in="SourceAlpha" type="matrix" values="0 0 0 0 0 0 0 0 0 0 0 0 0 0 0 0 0 0 127 0"/>
<feOffset dy="6"/>
<feGaussianBlur stdDeviation="10"/>
<feColorMatrix type="matrix" values="0 0 0 0 0 0 0 0 0 0 0 0 0 0 0 0 0 0 0.3 0"/>
<feBlend mode="normal" in2="BackgroundImageFix" result="effect1_dropShadow"/>
<feBlend mode="normal" in="SourceGraphic" in2="effect1_dropShadow" result="shape"/>
</filter>
<filter id="filter5_d" x="52" y="0.00292969" width="78" height="78" filterUnits="userSpaceOnUse" color-interpolation-filters="sRGB">
<feFlood flood-opacity="0" result="BackgroundImageFix"/>
<feColorMatrix in="SourceAlpha" type="matrix" values="0 0 0 0 0 0 0 0 0 0 0 0 0 0 0 0 0 0 127 0"/>
<feOffset dy="6"/>
<feGaussianBlur stdDeviation="10"/>
<feColorMatrix type="matrix" values="0 0 0 0 0 0 0 0 0 0 0 0 0 0 0 0 0 0 0.3 0"/>
<feBlend mode="normal" in2="BackgroundImageFix" result="effect1_dropShadow"/>
<feBlend mode="normal" in="SourceGraphic" in2="effect1_dropShadow" result="shape"/>
</filter>
<linearGradient id="paint0_linear" x1="142.999" y1="14" x2="142.999" y2="51.8587" gradientUnits="userSpaceOnUse">
<stop stop-color="#71CAFB"/>
<stop offset="1" stop-color="#1B8DE7"/>
<stop offset="1" stop-color="#4191D0"/>
</linearGradient>
<linearGradient id="paint1_linear" x1="247.016" y1="51.9371" x2="247.016" y2="14.0397" gradientUnits="userSpaceOnUse">
<stop stop-color="#00B70C"/>
<stop offset="0.00164835" stop-color="#00B70C"/>
<stop offset="0.9517" stop-color="#00D50C"/>
<stop offset="1" stop-color="#00D50C"/>
</linearGradient>
<linearGradient id="paint2_linear" x1="39.0008" y1="21.3994" x2="39.0008" y2="45.6279" gradientUnits="userSpaceOnUse">
<stop stop-color="#00B2FF"/>
<stop offset="1" stop-color="#006AFF"/>
</linearGradient>
<linearGradient id="paint3_linear" x1="299" y1="25.7207" x2="299" y2="34.6296" gradientUnits="userSpaceOnUse">
<stop stop-color="#56A0F3"/>
<stop offset="1" stop-color="#487EE8"/>
</linearGradient>
<linearGradient id="paint4_linear" x1="299" y1="30.2344" x2="299" y2="39.7204" gradientUnits="userSpaceOnUse">
<stop stop-color="#56A0F3"/>
<stop offset="1" stop-color="#487EE8"/>
</linearGradient>
<linearGradient id="paint5_linear" x1="91" y1="14.0029" x2="91" y2="52.0029" gradientUnits="userSpaceOnUse">
<stop stop-color="#00B7EC"/>
<stop offset="1" stop-color="#0080D7"/>
</linearGradient>
</defs>
</svg>
